<svg xmlns="http://www.w3.org/2000/svg" width="720" height="480" viewBox="0 0 720 480" fill="none">
  <title>Stylized attention matrix and information flow</title>
  <defs>
    <linearGradient id="background" x1="70" y1="0" x2="620" y2="480" gradientUnits="userSpaceOnUse">
      <stop stop-color="#F4FAFF"/>
      <stop offset="1" stop-color="#EAF4FF"/>
    </linearGradient>
  </defs>
  <path fill="url(#background)" d="M0 0h720v480H0z"/>
  <path d="M121 280V77H581V151" stroke="#1E293B" stroke-opacity=".32" stroke-width="1.5"/>
  <path d="m576 144 5 7 5-7" stroke="#1E293B" stroke-opacity=".45" stroke-width="1.5" stroke-linecap="round" stroke-linejoin="round"/>
  <rect x="218" y="127" width="284" height="280" rx="18" stroke="#1E293B" stroke-opacity=".18" stroke-width="1.3"/>
  <rect x="237" y="99" width="42" height="8" rx="4" fill="#0EA5A3" fill-opacity="0.25"/>
  <rect x="237" y="145" width="42" height="42" rx="6" fill="#0EA5A3" fill-opacity="0.13" stroke="#0EA5A3" stroke-opacity=".12"/>
  <rect x="237" y="196" width="42" height="42" rx="6" fill="#0EA5A3" fill-opacity="0.445" stroke="#0EA5A3" stroke-opacity=".12"/>
  <rect x="237" y="247" width="42" height="42" rx="6" fill="#0EA5A3" fill-opacity="0.13" stroke="#0EA5A3" stroke-opacity=".12"/>
  <rect x="237" y="298" width="42" height="42" rx="6" fill="#0EA5A3" fill-opacity="0.445" stroke="#0EA5A3" stroke-opacity=".12"/>
  <rect x="237" y="349" width="42" height="42" rx="6" fill="#0EA5A3" fill-opacity="0.13" stroke="#0EA5A3" stroke-opacity=".12"/>
  <rect x="288" y="99" width="42" height="8" rx="4" fill="#0EA5A3" fill-opacity="0.25"/>
  <rect x="288" y="145" width="42" height="42" rx="6" fill="#0EA5A3" fill-opacity="0.025" stroke="#0EA5A3" stroke-opacity=".12"/>
  <rect x="288" y="196" width="42" height="42" rx="6" fill="#0EA5A3" fill-opacity="0.55" stroke="#0EA5A3" stroke-opacity=".12"/>
  <rect x="288" y="247" width="42" height="42" rx="6" fill="#0EA5A3" fill-opacity="0.235" stroke="#0EA5A3" stroke-opacity=".12"/>
  <rect x="288" y="298" width="42" height="42" rx="6" fill="#0EA5A3" fill-opacity="0.55" stroke="#0EA5A3" stroke-opacity=".12"/>
  <rect x="288" y="349" width="42" height="42" rx="6" fill="#0EA5A3" fill-opacity="0.235" stroke="#0EA5A3" stroke-opacity=".12"/>
  <rect x="339" y="99" width="42" height="8" rx="4" fill="#0EA5A3" fill-opacity="0.25"/>
  <rect x="339" y="145" width="42" height="42" rx="6" fill="#0EA5A3" fill-opacity="0.025" stroke="#0EA5A3" stroke-opacity=".12"/>
  <rect x="339" y="196" width="42" height="42" rx="6" fill="#0EA5A3" fill-opacity="0.025" stroke="#0EA5A3" stroke-opacity=".12"/>
  <rect x="339" y="247" width="42" height="42" rx="6" fill="#0EA5A3" fill-opacity="0.33999999999999997" stroke="#0EA5A3" stroke-opacity=".12"/>
  <rect x="339" y="298" width="42" height="42" rx="6" fill="#0EA5A3" fill-opacity="0.655" stroke="#0EA5A3" stroke-opacity=".12"/>
  <rect x="339" y="349" width="42" height="42" rx="6" fill="#0EA5A3" fill-opacity="0.33999999999999997" stroke="#0EA5A3" stroke-opacity=".12"/>
  <rect x="390" y="99" width="42" height="8" rx="4" fill="#B31B1B" fill-opacity="0.7"/>
  <rect x="390" y="145" width="42" height="42" rx="6" fill="#0EA5A3" fill-opacity="0.025" stroke="#0EA5A3" stroke-opacity=".12"/>
  <rect x="390" y="196" width="42" height="42" rx="6" fill="#0EA5A3" fill-opacity="0.025" stroke="#0EA5A3" stroke-opacity=".12"/>
  <rect x="390" y="247" width="42" height="42" rx="6" fill="#0EA5A3" fill-opacity="0.025" stroke="#0EA5A3" stroke-opacity=".12"/>
  <rect x="390" y="298" width="42" height="42" rx="6" fill="#0EA5A3" fill-opacity="0.13" stroke="#0EA5A3" stroke-opacity=".12"/>
  <rect x="390" y="349" width="42" height="42" rx="6" fill="#0EA5A3" fill-opacity="0.445" stroke="#0EA5A3" stroke-opacity=".12"/>
  <rect x="441" y="99" width="42" height="8" rx="4" fill="#0EA5A3" fill-opacity="0.25"/>
  <rect x="441" y="145" width="42" height="42" rx="6" fill="#0EA5A3" fill-opacity="0.025" stroke="#0EA5A3" stroke-opacity=".12"/>
  <rect x="441" y="196" width="42" height="42" rx="6" fill="#0EA5A3" fill-opacity="0.025" stroke="#0EA5A3" stroke-opacity=".12"/>
  <rect x="441" y="247" width="42" height="42" rx="6" fill="#0EA5A3" fill-opacity="0.025" stroke="#0EA5A3" stroke-opacity=".12"/>
  <rect x="441" y="298" width="42" height="42" rx="6" fill="#0EA5A3" fill-opacity="0.025" stroke="#0EA5A3" stroke-opacity=".12"/>
  <rect x="441" y="349" width="42" height="42" rx="6" fill="#0EA5A3" fill-opacity="0.55" stroke="#0EA5A3" stroke-opacity=".12"/>
  <rect x="85" y="163" width="72" height="43" rx="8" fill="#F9FCFF" stroke="#1E293B" stroke-opacity=".28" stroke-width="1.5"/>
  <path d="M157 184C193 184 179 172 218 172" stroke="#1E293B" stroke-opacity=".3" stroke-width="1.3"/>
  <path d="M101 192v-10" stroke="#1E293B" stroke-opacity=".5" stroke-width="2" stroke-linecap="round"/>
  <path d="M120 192v-15" stroke="#1E293B" stroke-opacity=".5" stroke-width="2" stroke-linecap="round"/>
  <path d="M139 192v-20" stroke="#1E293B" stroke-opacity=".5" stroke-width="2" stroke-linecap="round"/>
  <rect x="85" y="226" width="72" height="43" rx="8" fill="#F9FCFF" stroke="#1E293B" stroke-opacity=".28" stroke-width="1.5"/>
  <path d="M157 247C193 247 179 235 218 235" stroke="#1E293B" stroke-opacity=".3" stroke-width="1.3"/>
  <path d="M101 255v-15" stroke="#1E293B" stroke-opacity=".5" stroke-width="2" stroke-linecap="round"/>
  <path d="M120 255v-20" stroke="#1E293B" stroke-opacity=".5" stroke-width="2" stroke-linecap="round"/>
  <path d="M139 255v-10" stroke="#B31B1B" stroke-opacity=".5" stroke-width="2" stroke-linecap="round"/>
  <rect x="85" y="289" width="72" height="43" rx="8" fill="#F9FCFF" stroke="#1E293B" stroke-opacity=".28" stroke-width="1.5"/>
  <path d="M157 310C193 310 179 298 218 298" stroke="#1E293B" stroke-opacity=".3" stroke-width="1.3"/>
  <path d="M101 318v-20" stroke="#1E293B" stroke-opacity=".5" stroke-width="2" stroke-linecap="round"/>
  <path d="M120 318v-10" stroke="#1E293B" stroke-opacity=".5" stroke-width="2" stroke-linecap="round"/>
  <path d="M139 318v-15" stroke="#1E293B" stroke-opacity=".5" stroke-width="2" stroke-linecap="round"/>
  <path d="M502 267H548" stroke="#B31B1B" stroke-width="1.8"/>
  <path d="m541 262 7 5-7 5" stroke="#B31B1B" stroke-width="1.8" stroke-linecap="round" stroke-linejoin="round"/>
  <rect x="558" y="164" width="47" height="202" rx="12" stroke="#1E293B" stroke-opacity=".3" stroke-width="1.4"/>
  <rect x="570" y="179" width="23" height="18" rx="4" fill="#0EA5A3" fill-opacity="0.18"/>
  <rect x="570" y="208" width="23" height="18" rx="4" fill="#0EA5A3" fill-opacity="0.22499999999999998"/>
  <rect x="570" y="237" width="23" height="18" rx="4" fill="#0EA5A3" fill-opacity="0.27"/>
  <rect x="570" y="266" width="23" height="18" rx="4" fill="#B31B1B" fill-opacity="0.7"/>
  <rect x="570" y="295" width="23" height="18" rx="4" fill="#0EA5A3" fill-opacity="0.36"/>
  <rect x="570" y="324" width="23" height="18" rx="4" fill="#0EA5A3" fill-opacity="0.40499999999999997"/>
  <path d="M360 394v36" stroke="#0EA5A3" stroke-opacity=".5" stroke-width="1.4"/>
</svg>
