<?xml version="1.0" encoding="UTF-8"?>
<svg xmlns="http://www.w3.org/2000/svg" width="127" height="33" viewBox="0 0 127 33" fill="none">
  <path d="M34.0123 19.1193L18.3618 12.8155L30.724 8.58072L29.5236 5.07834L16.0283 9.70131L18.9305 1.19404L15.4281 0L12.081 9.80834L5.25881 5.28819L3.21488 8.37297L9.73699 12.6938L0 19.3061L2.0796 22.3678L10.5638 16.6053L8.16942 31.7795L11.825 32.3566L14.0767 18.0953L22.7644 32.9987L25.9625 31.1353L17.3776 16.4102L32.6294 22.5525L34.0123 19.1193ZM59.1144 10.6687C58.8374 9.13052 57.5762 6.72356 54.0235 6.72356C51.3794 6.72356 49.6439 8.42123 49.6439 10.2742C49.6439 11.8124 50.6302 13.0358 52.6826 13.4303L56.5899 14.1795C61.6809 15.1658 64.4026 18.4814 64.4026 22.4265C64.4026 26.7284 60.8121 31.0681 54.3005 31.0681C46.8823 31.0681 43.6066 26.2941 43.1722 22.309L48.2233 20.9681C48.4604 23.7297 50.3931 26.2164 54.3404 26.2164C57.2594 26.2164 58.8773 24.7559 58.8773 22.7833C58.8773 21.1654 57.6539 19.9021 55.484 19.4698L51.5766 18.6807C47.1174 17.7742 44.2382 14.893 44.2382 10.6708C44.2382 5.69949 48.6975 1.91172 53.9836 1.91172C60.7701 1.91172 63.3744 6.01637 64.006 9.17249L59.1123 10.6729L59.1144 10.6687ZM85.1189 24.0844H73.7556L71.4284 30.4763H65.668L76.3976 2.5014H82.7119L93.366 30.4784H87.4461L85.1189 24.0864V24.0844ZM75.5708 19.113H83.3037L79.4362 8.53875L75.5687 19.113H75.5708ZM97.0362 30.4763V2.5014H102.559V30.4784H97.0362V30.4763ZM109.111 30.4763V2.5014H126.789V7.66997H114.556V14.5761H125.448V19.5873H114.596V30.4784H109.111V30.4763Z" fill="#566C6C"></path>
</svg>
