<svg width="980" height="220" viewBox="0 0 980 220" fill="none" xmlns="http://www.w3.org/2000/svg" role="img" aria-label="Decorative data beams">
  <rect width="980" height="220" rx="24" fill="url(#base)"/>
  <path d="M40 168C211 108 318 121 493 74C634 36 759 44 940 18" stroke="url(#line1)" stroke-width="2.1"/>
  <path d="M40 200C214 170 348 186 510 146C637 116 790 117 940 102" stroke="url(#line2)" stroke-width="2.1"/>
  <path d="M40 101C183 61 291 72 436 48C607 21 729 47 940 29" stroke="url(#line3)" stroke-width="1.8"/>
  <circle cx="311" cy="122" r="6" fill="#B31B1B"/>
  <circle cx="642" cy="82" r="6" fill="#0EA5A3"/>
  <circle cx="828" cy="102" r="6" fill="#0F172A"/>
  <defs>
    <linearGradient id="base" x1="490" y1="0" x2="490" y2="220" gradientUnits="userSpaceOnUse">
      <stop stop-color="#EEF7FF"/>
      <stop offset="1" stop-color="#F9FCFF"/>
    </linearGradient>
    <linearGradient id="line1" x1="58" y1="182" x2="938" y2="21" gradientUnits="userSpaceOnUse">
      <stop stop-color="#0EA5A3"/>
      <stop offset="1" stop-color="#B31B1B"/>
    </linearGradient>
    <linearGradient id="line2" x1="40" y1="205" x2="940" y2="98" gradientUnits="userSpaceOnUse">
      <stop stop-color="#1E293B"/>
      <stop offset="1" stop-color="#0EA5A3"/>
    </linearGradient>
    <linearGradient id="line3" x1="40" y1="107" x2="936" y2="26" gradientUnits="userSpaceOnUse">
      <stop stop-color="#B31B1B"/>
      <stop offset="1" stop-color="#334155"/>
    </linearGradient>
  </defs>
</svg>
