<svg width="3663" height="1134" viewBox="0 0 3663 1134" fill="none" xmlns="http://www.w3.org/2000/svg">
<path d="M1298.34 349.182H1218.23C1217.66 342.553 1216.14 336.54 1213.68 331.142C1211.31 325.744 1208 321.104 1203.74 317.222C1199.57 313.244 1194.51 310.214 1188.54 308.131C1182.57 305.953 1175.8 304.864 1168.23 304.864C1154.97 304.864 1143.75 308.083 1134.56 314.523C1125.47 320.962 1118.56 330.195 1113.82 342.222C1109.18 354.248 1106.86 368.689 1106.86 385.545C1106.86 403.348 1109.23 418.263 1113.97 430.29C1118.8 442.222 1125.76 451.218 1134.85 457.278C1143.94 463.244 1154.88 466.227 1167.66 466.227C1174.95 466.227 1181.48 465.328 1187.26 463.528C1193.04 461.634 1198.06 458.936 1202.32 455.432C1206.58 451.928 1210.04 447.714 1212.69 442.79C1215.43 437.771 1217.28 432.136 1218.23 425.886L1298.34 426.455C1297.39 438.765 1293.94 451.312 1287.97 464.097C1282.01 476.786 1273.53 488.528 1262.55 499.324C1251.66 510.025 1238.16 518.642 1222.06 525.176C1205.96 531.71 1187.26 534.977 1165.95 534.977C1139.25 534.977 1115.29 529.248 1094.08 517.79C1072.96 506.331 1056.25 489.475 1043.94 467.222C1031.72 444.968 1025.61 417.742 1025.61 385.545C1025.61 353.159 1031.86 325.886 1044.36 303.727C1056.86 281.473 1073.72 264.665 1094.93 253.301C1116.14 241.843 1139.82 236.114 1165.95 236.114C1184.33 236.114 1201.23 238.623 1216.66 243.642C1232.1 248.661 1245.64 256 1257.29 265.659C1268.94 275.223 1278.31 287.013 1285.41 301.028C1292.52 315.044 1296.83 331.095 1298.34 349.182ZM1420.42 534.977C1396.75 534.977 1376.48 530.29 1359.63 520.915C1342.77 511.445 1329.84 498.282 1320.85 481.426C1311.85 464.475 1307.35 444.826 1307.35 422.477C1307.35 400.129 1311.85 380.527 1320.85 363.67C1329.84 346.72 1342.77 333.557 1359.63 324.182C1376.48 314.712 1396.75 309.977 1420.42 309.977C1444.1 309.977 1464.36 314.712 1481.22 324.182C1498.07 333.557 1511 346.72 1520 363.67C1528.99 380.527 1533.49 400.129 1533.49 422.477C1533.49 444.826 1528.99 464.475 1520 481.426C1511 498.282 1498.07 511.445 1481.22 520.915C1464.36 530.29 1444.1 534.977 1420.42 534.977ZM1420.99 477.023C1427.62 477.023 1433.35 474.797 1438.18 470.347C1443.01 465.896 1446.75 459.551 1449.4 451.312C1452.05 443.074 1453.38 433.273 1453.38 421.909C1453.38 410.451 1452.05 400.65 1449.4 392.506C1446.75 384.267 1443.01 377.922 1438.18 373.472C1433.35 369.021 1427.62 366.795 1420.99 366.795C1413.98 366.795 1407.97 369.021 1402.95 373.472C1397.93 377.922 1394.1 384.267 1391.44 392.506C1388.79 400.65 1387.47 410.451 1387.47 421.909C1387.47 433.273 1388.79 443.074 1391.44 451.312C1394.1 459.551 1397.93 465.896 1402.95 470.347C1407.97 474.797 1413.98 477.023 1420.99 477.023ZM1545.31 531V312.818H1621.44V354.295H1623.72C1627.69 338.955 1633.99 327.733 1642.61 320.631C1651.32 313.528 1661.5 309.977 1673.15 309.977C1676.56 309.977 1679.92 310.261 1683.23 310.83C1686.64 311.303 1689.91 312.013 1693.04 312.96V379.864C1689.15 378.538 1684.37 377.544 1678.69 376.881C1673.01 376.218 1668.13 375.886 1664.06 375.886C1656.39 375.886 1649.47 377.638 1643.32 381.142C1637.26 384.551 1632.48 389.381 1628.97 395.631C1625.47 401.786 1623.72 409.03 1623.72 417.364V531H1545.31ZM1777.15 408.273V531H1698.75V312.818H1773.18V354.295H1775.45C1780.19 340.47 1788.52 329.627 1800.45 321.767C1812.48 313.907 1826.49 309.977 1842.5 309.977C1857.93 309.977 1871.33 313.528 1882.69 320.631C1894.15 327.638 1903.01 337.297 1909.26 349.608C1915.6 361.919 1918.73 375.981 1918.63 391.795V531H1840.22V408.273C1840.32 397.477 1837.57 389.002 1831.98 382.847C1826.49 376.691 1818.82 373.614 1808.97 373.614C1802.53 373.614 1796.9 375.034 1792.07 377.875C1787.33 380.621 1783.69 384.598 1781.13 389.807C1778.58 394.92 1777.25 401.076 1777.15 408.273ZM2041.88 534.977C2018.59 534.977 1998.51 530.527 1981.66 521.625C1964.9 512.629 1951.97 499.75 1942.88 482.989C1933.88 466.133 1929.38 445.962 1929.38 422.477C1929.38 399.939 1933.93 380.242 1943.02 363.386C1952.11 346.53 1964.94 333.415 1981.52 324.04C1998.09 314.665 2017.64 309.977 2040.18 309.977C2056.66 309.977 2071.57 312.534 2084.92 317.648C2098.28 322.761 2109.69 330.195 2119.16 339.949C2128.63 349.608 2135.92 361.35 2141.03 375.176C2146.15 389.002 2148.7 404.58 2148.7 421.909V440.091H1953.82V396.909H2076.54C2076.45 390.659 2074.84 385.167 2071.71 380.432C2068.68 375.602 2064.56 371.862 2059.36 369.21C2054.24 366.464 2048.42 365.091 2041.88 365.091C2035.54 365.091 2029.72 366.464 2024.41 369.21C2019.11 371.862 2014.85 375.555 2011.63 380.29C2008.5 385.025 2006.85 390.564 2006.66 396.909V443.5C2006.66 450.508 2008.13 456.758 2011.06 462.25C2014 467.742 2018.21 472.051 2023.7 475.176C2029.2 478.301 2035.82 479.864 2043.59 479.864C2048.99 479.864 2053.91 479.106 2058.36 477.591C2062.91 476.076 2066.79 473.898 2070.01 471.057C2073.23 468.121 2075.6 464.617 2077.11 460.545H2148.7C2146.24 475.697 2140.42 488.86 2131.23 500.034C2122.05 511.114 2109.88 519.731 2094.73 525.886C2079.67 531.947 2062.06 534.977 2041.88 534.977ZM2239.11 240.091V531H2160.7V240.091H2239.11ZM2337.47 240.091V531H2259.06V240.091H2337.47Z" fill="#B31B1B"/>
<path d="M1102.32 881H1017.09L1113.11 590.091H1221.07L1317.09 881H1231.86L1168.23 670.205H1165.95L1102.32 881ZM1086.41 766.227H1246.64V825.318H1086.41V766.227ZM1404.09 590.091V881H1325.11V590.091H1404.09ZM1556.77 881H1471.54L1567.57 590.091H1675.52L1771.54 881H1686.32L1622.68 670.205H1620.41L1556.77 881ZM1540.86 766.227H1701.09V825.318H1540.86V766.227ZM1859.11 590.091V881H1780.7V590.091H1859.11ZM1879.06 881V662.818H1957.47V881H1879.06ZM1918.26 640.091C1907.66 640.091 1898.57 636.587 1890.99 629.58C1883.41 622.572 1879.63 614.144 1879.63 604.295C1879.63 594.447 1883.41 586.019 1890.99 579.011C1898.57 572.004 1907.66 568.5 1918.26 568.5C1928.96 568.5 1938.05 572.004 1945.54 579.011C1953.11 586.019 1956.9 594.447 1956.9 604.295C1956.9 614.144 1953.11 622.572 1945.54 629.58C1938.05 636.587 1928.96 640.091 1918.26 640.091ZM2082.53 967.364C2060.66 967.364 2041.91 964.239 2026.28 957.989C2010.75 951.833 1998.68 943.311 1990.06 932.42C1981.54 921.625 1976.75 909.22 1975.71 895.205H2051.28C2052.04 899.845 2053.93 903.585 2056.96 906.426C2059.99 909.267 2063.88 911.303 2068.61 912.534C2073.44 913.86 2078.84 914.523 2084.8 914.523C2094.94 914.523 2103.32 912.061 2109.95 907.136C2116.67 902.212 2120.03 893.311 2120.03 880.432V843.5H2117.76C2114.92 850.886 2110.56 857.184 2104.69 862.392C2098.82 867.506 2091.76 871.436 2083.53 874.182C2075.29 876.833 2066.24 878.159 2056.39 878.159C2040.86 878.159 2026.57 874.561 2013.5 867.364C2000.52 860.167 1990.11 848.756 1982.25 833.131C1974.48 817.506 1970.6 797.098 1970.6 771.909C1970.6 745.583 1974.67 724.182 1982.82 707.705C1991.05 691.227 2001.66 679.153 2014.63 671.483C2027.7 663.812 2041.43 659.977 2055.83 659.977C2066.62 659.977 2076.09 661.871 2084.24 665.659C2092.38 669.352 2099.2 674.324 2104.69 680.574C2110.18 686.729 2114.35 693.5 2117.19 700.886H2118.89V662.818H2197.3V880.432C2197.3 898.898 2192.52 914.57 2182.96 927.449C2173.49 940.422 2160.14 950.318 2142.9 957.136C2125.67 963.955 2105.54 967.364 2082.53 967.364ZM2085.37 822.477C2092.57 822.477 2098.72 820.489 2103.84 816.511C2109.05 812.439 2113.02 806.663 2115.77 799.182C2118.61 791.606 2120.03 782.515 2120.03 771.909C2120.03 761.114 2118.61 751.881 2115.77 744.21C2113.02 736.445 2109.05 730.527 2103.84 726.455C2098.72 722.288 2092.57 720.205 2085.37 720.205C2078.18 720.205 2072.02 722.288 2066.91 726.455C2061.89 730.527 2058 736.445 2055.26 744.21C2052.61 751.881 2051.28 761.114 2051.28 771.909C2051.28 782.705 2052.61 791.89 2055.26 799.466C2058 806.947 2061.89 812.676 2066.91 816.653C2072.02 820.536 2078.18 822.477 2085.37 822.477ZM2295.59 758.273V881H2217.18V662.818H2291.62V704.295H2293.89C2298.62 690.47 2306.96 679.627 2318.89 671.767C2330.91 663.907 2344.93 659.977 2360.93 659.977C2376.37 659.977 2389.77 663.528 2401.13 670.631C2412.59 677.638 2421.44 687.297 2427.69 699.608C2434.04 711.919 2437.16 725.981 2437.07 741.795V881H2358.66V758.273C2358.76 747.477 2356.01 739.002 2350.42 732.847C2344.93 726.691 2337.26 723.614 2327.41 723.614C2320.97 723.614 2315.34 725.034 2310.51 727.875C2305.77 730.621 2302.13 734.598 2299.57 739.807C2297.01 744.92 2295.69 751.076 2295.59 758.273ZM2455.78 881V662.818H2530.21V704.295H2532.48C2537.03 690.659 2544.79 679.864 2555.78 671.909C2566.76 663.955 2579.83 659.977 2594.98 659.977C2610.32 659.977 2623.53 664.049 2634.61 672.193C2645.69 680.242 2652.37 690.943 2654.64 704.295H2656.91C2660.61 690.943 2668.47 680.242 2680.49 672.193C2692.52 664.049 2706.63 659.977 2722.82 659.977C2743.75 659.977 2760.7 666.701 2773.67 680.148C2786.74 693.595 2793.28 711.492 2793.28 733.841V881H2714.87V753.727C2714.87 744.163 2712.45 736.682 2707.62 731.284C2702.79 725.792 2696.31 723.045 2688.16 723.045C2680.11 723.045 2673.72 725.792 2668.99 731.284C2664.35 736.682 2662.03 744.163 2662.03 753.727V881H2587.03V753.727C2587.03 744.163 2584.61 736.682 2579.78 731.284C2574.95 725.792 2568.47 723.045 2560.32 723.045C2554.92 723.045 2550.28 724.277 2546.4 726.739C2542.52 729.201 2539.49 732.752 2537.31 737.392C2535.23 741.937 2534.19 747.383 2534.19 753.727V881H2455.78ZM2916.49 884.977C2893.2 884.977 2873.12 880.527 2856.27 871.625C2839.51 862.629 2826.58 849.75 2817.49 832.989C2808.49 816.133 2803.99 795.962 2803.99 772.477C2803.99 749.939 2808.54 730.242 2817.63 713.386C2826.72 696.53 2839.55 683.415 2856.12 674.04C2872.7 664.665 2892.25 659.977 2914.79 659.977C2931.27 659.977 2946.18 662.534 2959.53 667.648C2972.89 672.761 2984.3 680.195 2993.77 689.949C3003.24 699.608 3010.53 711.35 3015.64 725.176C3020.76 739.002 3023.31 754.58 3023.31 771.909V790.091H2828.43V746.909H2951.15C2951.06 740.659 2949.45 735.167 2946.32 730.432C2943.29 725.602 2939.17 721.862 2933.97 719.21C2928.85 716.464 2923.03 715.091 2916.49 715.091C2910.15 715.091 2904.33 716.464 2899.02 719.21C2893.72 721.862 2889.46 725.555 2886.24 730.29C2883.11 735.025 2881.46 740.564 2881.27 746.909V793.5C2881.27 800.508 2882.73 806.758 2885.67 812.25C2888.61 817.742 2892.82 822.051 2898.31 825.176C2903.8 828.301 2910.43 829.864 2918.2 829.864C2923.6 829.864 2928.52 829.106 2932.97 827.591C2937.52 826.076 2941.4 823.898 2944.62 821.057C2947.84 818.121 2950.21 814.617 2951.72 810.545H3023.31C3020.85 825.697 3015.03 838.86 3005.84 850.034C2996.66 861.114 2984.49 869.731 2969.34 875.886C2954.28 881.947 2936.66 884.977 2916.49 884.977ZM3113.72 758.273V881H3035.31V662.818H3109.74V704.295H3112.01C3116.75 690.47 3125.08 679.627 3137.01 671.767C3149.04 663.907 3163.05 659.977 3179.06 659.977C3194.49 659.977 3207.89 663.528 3219.26 670.631C3230.72 677.638 3239.57 687.297 3245.82 699.608C3252.16 711.919 3255.29 725.981 3255.19 741.795V881H3176.79V758.273C3176.88 747.477 3174.13 739.002 3168.55 732.847C3163.05 726.691 3155.38 723.614 3145.54 723.614C3139.1 723.614 3133.46 725.034 3128.63 727.875C3123.9 730.621 3120.25 734.598 3117.69 739.807C3115.14 744.92 3113.81 751.076 3113.72 758.273ZM3404.02 662.818V719.636H3260.27V662.818H3404.02ZM3288.11 610.545H3366.52V810.83C3366.52 813.86 3367.04 816.417 3368.08 818.5C3369.12 820.489 3370.73 822.004 3372.91 823.045C3375.09 823.992 3377.88 824.466 3381.29 824.466C3383.66 824.466 3386.4 824.182 3389.53 823.614C3392.75 823.045 3395.11 822.572 3396.63 822.193L3407.99 877.307C3404.49 878.348 3399.47 879.627 3392.94 881.142C3386.5 882.657 3378.83 883.652 3369.92 884.125C3351.93 885.072 3336.83 883.225 3324.61 878.585C3312.4 873.85 3303.21 866.417 3297.06 856.284C3290.9 846.152 3287.92 833.462 3288.11 818.216V610.545Z" fill="black"/>
<circle cx="533" cy="561" r="275" stroke="#B31B1B" stroke-width="150"/>
<rect x="694.143" y="223.444" width="170" height="706.281" transform="rotate(-5 694.143 223.444)" fill="black" stroke="white" stroke-width="20"/>
<circle cx="533" cy="561" r="360" stroke="white" stroke-width="20"/>
<rect x="732.713" y="549.555" width="150" height="368.05" transform="rotate(-5 732.713 549.555)" fill="black"/>
</svg>
