<svg width="3663" height="1056" viewBox="0 0 3663 1056" fill="none" xmlns="http://www.w3.org/2000/svg">
<path d="M1300 392C1301.6 392.8 1302.93 393.6 1304 394.4C1305.07 394.933 1305.6 395.867 1305.6 397.2C1305.6 397.733 1305.33 398.8 1304.8 400.4C1300.53 410.8 1294.67 421.467 1287.2 432.4C1280 443.067 1270.93 453.067 1260 462.4C1249.33 471.733 1236.53 479.2 1221.6 484.8C1206.93 490.4 1190 493.2 1170.8 493.2C1138.8 493.2 1111.73 486.533 1089.6 473.2C1067.47 459.867 1050.67 441.733 1039.2 418.8C1027.73 395.6 1022 369.733 1022 341.2C1022 327.867 1023.47 314 1026.4 299.6C1029.33 284.933 1034.13 270.667 1040.8 256.8C1047.47 242.933 1056.4 230.533 1067.6 219.6C1079.07 208.4 1093.2 199.6 1110 193.2C1126.8 186.533 1146.67 183.2 1169.6 183.2C1188.8 183.2 1205.33 185.6 1219.2 190.4C1233.07 195.2 1244.67 201.333 1254 208.8C1263.33 216 1270.8 223.6 1276.4 231.6C1282 239.6 1286 247.067 1288.4 254C1290.8 260.933 1292 266.133 1292 269.6C1292 273.333 1289.73 276 1285.2 277.6L1236.4 294.8C1233.73 295.867 1231.33 296.4 1229.2 296.4C1226 296.4 1224.4 295.067 1224.4 292.4C1224.4 291.867 1224.53 289.867 1224.8 286.4C1225.07 282.933 1225.2 280.533 1225.2 279.2C1225.2 269.6 1223.47 259.867 1220 250C1216.53 240.133 1210.53 231.867 1202 225.2C1193.47 218.267 1181.6 214.8 1166.4 214.8C1152 214.8 1139.87 218.267 1130 225.2C1120.4 232.133 1112.67 241.2 1106.8 252.4C1100.93 263.6 1096.67 275.467 1094 288C1091.6 300.533 1090.4 312.4 1090.4 323.6C1090.4 349.467 1093.47 372.267 1099.6 392C1105.73 411.467 1115.2 426.8 1128 438C1141.07 448.933 1157.47 454.4 1177.2 454.4C1196.93 454.4 1213.07 450.933 1225.6 444C1238.4 437.067 1248.53 428.667 1256 418.8C1263.73 408.667 1269.73 398.8 1274 389.2C1275.6 385.733 1277.87 384 1280.8 384C1282.13 384 1283.87 384.533 1286 385.6L1300 392ZM1403.92 282.8C1419.12 282.8 1433.12 285.867 1445.92 292C1458.98 297.867 1470.18 306 1479.52 316.4C1488.85 326.533 1496.05 338 1501.12 350.8C1506.45 363.333 1509.12 376.4 1509.12 390C1509.12 409.733 1504.45 427.467 1495.12 443.2C1485.78 458.667 1473.52 470.933 1458.32 480C1443.12 488.8 1426.58 493.2 1408.72 493.2C1393.52 493.2 1379.52 490.267 1366.72 484.4C1353.92 478.533 1342.72 470.667 1333.12 460.8C1323.78 450.667 1316.45 439.2 1311.12 426.4C1306.05 413.333 1303.52 399.733 1303.52 385.6C1303.52 366.133 1308.05 348.667 1317.12 333.2C1326.18 317.733 1338.32 305.467 1353.52 296.4C1368.72 287.333 1385.52 282.8 1403.92 282.8ZM1421.12 460.8C1426.18 460.8 1431.78 459.467 1437.92 456.8C1444.05 454.133 1449.38 449.467 1453.92 442.8C1458.72 436.133 1461.12 426.933 1461.12 415.2C1461.12 405.867 1459.25 395.6 1455.52 384.4C1452.05 372.933 1447.12 362 1440.72 351.6C1434.58 340.933 1427.25 332.267 1418.72 325.6C1410.45 318.667 1401.38 315.2 1391.52 315.2C1380.58 315.2 1371.12 319.333 1363.12 327.6C1355.12 335.6 1351.12 346.667 1351.12 360.8C1351.12 369.867 1352.85 380.133 1356.32 391.6C1360.05 403.067 1364.98 414.133 1371.12 424.8C1377.52 435.2 1384.98 443.867 1393.52 450.8C1402.05 457.467 1411.25 460.8 1421.12 460.8ZM1589.7 330C1596.9 314.533 1606.9 302.8 1619.7 294.8C1632.5 286.8 1645.96 282.8 1660.1 282.8C1672.63 282.8 1683.3 286.267 1692.1 293.2C1700.9 300.133 1705.3 310.4 1705.3 324C1705.3 329.867 1704.76 335.067 1703.7 339.6C1702.63 344.133 1699.7 347.467 1694.9 349.6L1657.3 364.8C1655.7 365.333 1654.5 365.6 1653.7 365.6C1651.3 365.6 1650.1 364.4 1650.1 362C1650.1 361.2 1650.36 360 1650.9 358.4C1652.5 354.667 1653.43 351.067 1653.7 347.6C1654.23 344.133 1654.5 341.067 1654.5 338.4C1654.5 331.2 1652.63 326 1648.9 322.8C1645.43 319.333 1641.03 317.6 1635.7 317.6C1629.56 317.6 1623.83 319.467 1618.5 323.2C1613.16 326.933 1608.5 331.467 1604.5 336.8C1600.5 342.133 1597.56 347.333 1595.7 352.4V426C1595.7 436.667 1598.1 445.733 1602.9 453.2C1607.7 460.4 1615.03 464 1624.9 464H1625.7C1629.7 464 1631.7 466 1631.7 470V482C1631.7 486 1629.7 488 1625.7 488H1509.3C1505.3 488 1503.3 486 1503.3 482V470C1503.3 466 1505.3 464 1509.3 464H1510.1C1519.96 464 1527.3 460.4 1532.1 453.2C1536.9 445.733 1539.3 436.667 1539.3 426V375.6C1539.3 368.4 1538.76 361.467 1537.7 354.8C1536.9 348.133 1534.9 342.533 1531.7 338C1528.5 333.2 1523.16 330.4 1515.7 329.6C1512.5 329.333 1510.9 327.6 1510.9 324.4V310.8C1510.9 308.133 1512.9 306.4 1516.9 305.6C1535.83 302.667 1552.36 298 1566.5 291.6C1580.9 285.2 1590.63 280.133 1595.7 276.4C1596.5 275.867 1597.16 275.6 1597.7 275.6H1598.5C1599.03 275.6 1599.3 275.867 1599.3 276.4C1599.3 276.667 1598.9 278.667 1598.1 282.4C1597.56 286.133 1596.76 290.933 1595.7 296.8C1594.9 302.4 1593.83 308.267 1592.5 314.4C1591.43 320.267 1590.5 325.467 1589.7 330ZM1919.83 357.6V426C1919.83 440.667 1922.1 450.667 1926.63 456C1931.43 461.333 1937.7 464 1945.43 464H1948.63C1952.63 464 1954.63 466 1954.63 470V482C1954.63 486 1952.63 488 1948.63 488H1842.23C1838.23 488 1836.23 486 1836.23 482V470C1836.23 466 1838.23 464 1842.23 464H1845.03C1850.63 464 1855.17 461.333 1858.63 456C1862.1 450.667 1863.83 440.667 1863.83 426V357.6C1863.83 344.8 1861.83 335.067 1857.83 328.4C1853.83 321.467 1846.23 318 1835.03 318C1828.37 318 1821.7 319.733 1815.03 323.2C1808.37 326.4 1802.5 330.667 1797.43 336C1792.37 341.067 1788.63 346.533 1786.23 352.4V426C1786.23 436.667 1788.5 445.733 1793.03 453.2C1797.83 460.4 1804.1 464 1811.83 464H1812.63C1816.63 464 1818.63 466 1818.63 470V482C1818.63 486 1816.63 488 1812.63 488H1700.23C1696.23 488 1694.23 486 1694.23 482V470C1694.23 466 1696.23 464 1700.23 464H1701.03C1710.9 464 1718.23 460.4 1723.03 453.2C1727.83 445.733 1730.23 436.667 1730.23 426V375.6C1730.23 368.4 1729.7 361.467 1728.63 354.8C1727.83 348.133 1725.7 342.533 1722.23 338C1719.03 333.2 1713.7 330.4 1706.23 329.6C1703.3 329.333 1701.83 327.6 1701.83 324.4V310.8C1701.83 308.133 1703.7 306.4 1707.43 305.6C1726.63 302.667 1743.03 298.133 1756.63 292C1770.5 285.867 1780.1 280.933 1785.43 277.2C1786.77 276.133 1787.83 275.6 1788.63 275.6H1789.03C1789.57 275.6 1789.83 275.867 1789.83 276.4C1789.83 276.933 1789.7 278 1789.43 279.6L1782.63 328.8C1786.37 322.667 1791.3 316.133 1797.43 309.2C1803.57 302 1811.17 295.867 1820.23 290.8C1829.3 285.467 1839.83 282.8 1851.83 282.8C1866.23 282.8 1877.97 284.933 1887.03 289.2C1896.1 293.467 1902.9 299.2 1907.43 306.4C1912.23 313.6 1915.43 321.6 1917.03 330.4C1918.9 339.2 1919.83 348.267 1919.83 357.6ZM1994.88 416.4C1999.41 427.6 2006.61 437.6 2016.48 446.4C2026.61 455.2 2039.41 459.6 2054.88 459.6C2063.41 459.6 2072.34 457.2 2081.68 452.4C2091.01 447.6 2099.14 440.133 2106.08 430C2106.88 428.667 2107.94 428 2109.28 428C2110.61 428 2111.94 428.4 2113.28 429.2C2114.88 430 2118.88 432.267 2125.28 436C2126.34 436.8 2126.87 437.867 2126.87 439.2C2126.87 441.067 2126.08 443.333 2124.48 446C2117.01 459.867 2106.88 471.2 2094.08 480C2081.28 488.8 2064.61 493.2 2044.08 493.2C2021.94 493.2 2002.88 488.267 1986.88 478.4C1970.88 468.533 1958.48 455.467 1949.68 439.2C1941.14 422.933 1936.88 405.2 1936.88 386C1936.88 367.6 1939.54 351.867 1944.88 338.8C1950.48 325.467 1957.81 314.8 1966.88 306.8C1975.94 298.533 1986.08 292.533 1997.28 288.8C2008.74 284.8 2020.34 282.8 2032.08 282.8C2045.41 282.8 2057.14 285.467 2067.28 290.8C2077.41 295.867 2085.94 302.4 2092.88 310.4C2100.08 318.4 2105.41 326.933 2108.88 336C2112.61 344.8 2114.48 353.067 2114.48 360.8C2114.48 362.933 2113.28 364.533 2110.88 365.6L1994.88 416.4ZM2054.48 359.2C2054.48 346.4 2051.41 335.867 2045.28 327.6C2039.14 319.333 2031.41 315.2 2022.08 315.2C2011.14 315.2 2002.48 319.6 1996.08 328.4C1989.68 336.933 1986.48 347.733 1986.48 360.8C1986.48 364.8 1986.61 369.733 1986.88 375.6C1987.41 381.467 1988.48 386.8 1990.08 391.6L2054.48 359.2ZM2237.53 464C2241.53 464 2243.53 466 2243.53 470V482C2243.53 486 2241.27 488 2236.73 488H2123.53C2119 488 2116.73 486 2116.73 482V470C2116.73 466 2118.73 464 2122.73 464H2123.53C2133.4 464 2140.6 460.4 2145.13 453.2C2149.93 445.733 2152.33 436.667 2152.33 426V276C2152.33 268.533 2151.8 261.467 2150.73 254.8C2149.93 248.133 2147.93 242.533 2144.73 238C2141.53 233.2 2136.2 230.4 2128.73 229.6C2125.53 229.333 2123.93 227.6 2123.93 224.4V210.8C2123.93 209.2 2124.47 208.133 2125.53 207.6C2126.6 207.067 2128.07 206.4 2129.93 205.6C2148.87 198.667 2163.93 192.267 2175.13 186.4C2186.6 180.267 2196.07 174.4 2203.53 168.8C2204.07 168.267 2204.6 168 2205.13 168H2206.33C2206.87 168 2207.13 168.267 2207.13 168.8V425.6C2207.13 436.267 2209.53 445.333 2214.33 452.8C2219.13 460.267 2226.47 464 2236.33 464H2237.53ZM2356.21 464C2360.21 464 2362.21 466 2362.21 470V482C2362.21 486 2359.94 488 2355.41 488H2242.21C2237.67 488 2235.41 486 2235.41 482V470C2235.41 466 2237.41 464 2241.41 464H2242.21C2252.07 464 2259.27 460.4 2263.81 453.2C2268.61 445.733 2271.01 436.667 2271.01 426V276C2271.01 268.533 2270.47 261.467 2269.41 254.8C2268.61 248.133 2266.61 242.533 2263.41 238C2260.21 233.2 2254.87 230.4 2247.41 229.6C2244.21 229.333 2242.61 227.6 2242.61 224.4V210.8C2242.61 209.2 2243.14 208.133 2244.21 207.6C2245.27 207.067 2246.74 206.4 2248.61 205.6C2267.54 198.667 2282.61 192.267 2293.81 186.4C2305.27 180.267 2314.74 174.4 2322.21 168.8C2322.74 168.267 2323.27 168 2323.81 168H2325.01C2325.54 168 2325.81 168.267 2325.81 168.8V425.6C2325.81 436.267 2328.21 445.333 2333.01 452.8C2337.81 460.267 2345.14 464 2355.01 464H2356.21Z" fill="#B31B1B"/>
<path d="M1284.4 776C1288.67 786.933 1292.8 796 1296.8 803.2C1300.8 810.4 1306.53 814 1314 814C1316.67 814 1318.27 814.533 1318.8 815.6C1319.6 816.4 1320 817.867 1320 820V832C1320 836 1318 838 1314 838H1191.2C1187.2 838 1185.2 836 1185.2 832V820C1185.2 817.867 1185.47 816.4 1186 815.6C1186.8 814.533 1188.53 814 1191.2 814C1198.4 814 1205.33 811.333 1212 806C1218.93 800.667 1222.4 794.133 1222.4 786.4C1222.4 784.533 1222.13 782.8 1221.6 781.2C1221.33 779.6 1220.93 777.867 1220.4 776L1208 742H1098.4L1086.4 776C1085.87 777.867 1085.47 779.733 1085.2 781.6C1084.93 783.2 1084.8 784.667 1084.8 786C1084.8 794.533 1088.27 801.333 1095.2 806.4C1102.13 811.467 1109.07 814 1116 814C1118.93 814 1120.67 814.533 1121.2 815.6C1121.73 816.4 1122 817.867 1122 820V832C1122 836 1120 838 1116 838H1016.4C1012.4 838 1010.4 836 1010.4 832V820C1010.4 817.867 1010.67 816.4 1011.2 815.6C1012 814.533 1013.73 814 1016.4 814C1024.4 814 1030.4 810.267 1034.4 802.8C1038.67 795.333 1042.67 786.4 1046.4 776L1132.4 543.2C1133.47 539.733 1135.73 538 1139.2 538H1187.6C1191.07 538 1193.33 539.6 1194.4 542.8L1284.4 776ZM1110.8 707.2H1195.2L1152 590.4L1110.8 707.2ZM1416.05 776C1416.05 786.667 1418.05 795.733 1422.05 803.2C1426.05 810.4 1432.99 814 1442.85 814H1445.25C1449.25 814 1451.25 816 1451.25 820V832C1451.25 836 1449.25 838 1445.25 838H1322.45C1318.45 838 1316.45 836 1316.45 832V820C1316.45 816 1318.45 814 1322.45 814H1325.25C1335.39 814 1342.32 810.4 1346.05 803.2C1350.05 795.733 1352.05 786.667 1352.05 776V600C1352.05 589.333 1350.05 580.4 1346.05 573.2C1342.32 565.733 1335.39 562 1325.25 562H1322.45C1318.45 562 1316.45 560 1316.45 556V544C1316.45 540 1318.45 538 1322.45 538H1445.25C1449.25 538 1451.25 540 1451.25 544V556C1451.25 560 1449.25 562 1445.25 562H1442.85C1432.99 562 1426.05 565.733 1422.05 573.2C1418.05 580.4 1416.05 589.333 1416.05 600V776ZM1801.74 776C1806.01 786.933 1810.14 796 1814.14 803.2C1818.14 810.4 1823.88 814 1831.34 814C1834.01 814 1835.61 814.533 1836.14 815.6C1836.94 816.4 1837.34 817.867 1837.34 820V832C1837.34 836 1835.34 838 1831.34 838H1708.54C1704.54 838 1702.54 836 1702.54 832V820C1702.54 817.867 1702.81 816.4 1703.34 815.6C1704.14 814.533 1705.88 814 1708.54 814C1715.74 814 1722.68 811.333 1729.34 806C1736.28 800.667 1739.74 794.133 1739.74 786.4C1739.74 784.533 1739.48 782.8 1738.94 781.2C1738.68 779.6 1738.28 777.867 1737.74 776L1725.34 742H1615.74L1603.74 776C1603.21 777.867 1602.81 779.733 1602.54 781.6C1602.28 783.2 1602.14 784.667 1602.14 786C1602.14 794.533 1605.61 801.333 1612.54 806.4C1619.48 811.467 1626.41 814 1633.34 814C1636.28 814 1638.01 814.533 1638.54 815.6C1639.08 816.4 1639.34 817.867 1639.34 820V832C1639.34 836 1637.34 838 1633.34 838H1533.74C1529.74 838 1527.74 836 1527.74 832V820C1527.74 817.867 1528.01 816.4 1528.54 815.6C1529.34 814.533 1531.08 814 1533.74 814C1541.74 814 1547.74 810.267 1551.74 802.8C1556.01 795.333 1560.01 786.4 1563.74 776L1649.74 543.2C1650.81 539.733 1653.08 538 1656.54 538H1704.94C1708.41 538 1710.68 539.6 1711.74 542.8L1801.74 776ZM1628.14 707.2H1712.54L1669.34 590.4L1628.14 707.2ZM1954.41 814C1958.41 814 1960.41 816 1960.41 820V832C1960.41 836 1958.14 838 1953.61 838H1840.41C1835.88 838 1833.61 836 1833.61 832V820C1833.61 816 1835.61 814 1839.61 814H1840.41C1850.28 814 1857.48 810.4 1862.01 803.2C1866.81 795.733 1869.21 786.667 1869.21 776V626C1869.21 618.533 1868.68 611.467 1867.61 604.8C1866.81 598.133 1864.81 592.533 1861.61 588C1858.41 583.2 1853.08 580.4 1845.61 579.6C1842.41 579.333 1840.81 577.6 1840.81 574.4V560.8C1840.81 559.2 1841.34 558.133 1842.41 557.6C1843.48 557.067 1844.94 556.4 1846.81 555.6C1865.74 548.667 1880.81 542.267 1892.01 536.4C1903.48 530.267 1912.94 524.4 1920.41 518.8C1920.94 518.267 1921.48 518 1922.01 518H1923.21C1923.74 518 1924.01 518.267 1924.01 518.8V775.6C1924.01 786.267 1926.41 795.333 1931.21 802.8C1936.01 810.267 1943.34 814 1953.21 814H1954.41ZM2073.08 814C2077.08 814 2079.08 816 2079.08 820V832C2079.08 836 2076.81 838 2072.28 838H1959.08C1954.55 838 1952.28 836 1952.28 832V820C1952.28 816 1954.28 814 1958.28 814H1959.08C1968.95 814 1976.15 810.4 1980.68 803.2C1985.48 795.733 1987.88 786.667 1987.88 776V733.6C1987.88 727.467 1987.35 721.333 1986.28 715.2C1985.48 709.067 1983.48 703.733 1980.28 699.2C1977.08 694.667 1971.75 692 1964.28 691.2C1961.08 690.933 1959.48 689.2 1959.48 686V672.4C1959.48 670.8 1960.01 669.733 1961.08 669.2C1962.15 668.4 1963.61 667.733 1965.48 667.2C1986.55 660.267 2002.68 653.2 2013.88 646C2025.35 638.533 2033.75 632 2039.08 626.4C2039.61 625.867 2040.15 625.6 2040.68 625.6H2041.88C2042.41 625.6 2042.68 625.867 2042.68 626.4V775.6C2042.68 786.267 2045.08 795.333 2049.88 802.8C2054.68 810.267 2062.01 814 2071.88 814H2073.08ZM2015.88 542C2022.81 542 2029.61 545.333 2036.28 552C2042.95 558.667 2046.28 565.333 2046.28 572C2046.28 578.667 2042.95 585.333 2036.28 592C2029.61 598.667 2022.81 602 2015.88 602C2009.48 602 2002.81 598.667 1995.88 592C1989.21 585.6 1985.88 578.933 1985.88 572C1985.88 565.333 1989.21 558.667 1995.88 552C2002.55 545.333 2009.21 542 2015.88 542ZM2283.37 626C2284.44 625.733 2285.5 625.6 2286.57 625.6C2287.9 625.6 2288.57 627.6 2288.57 631.6C2288.57 644.667 2286.04 654.8 2280.97 662C2276.17 669.2 2269.24 672.8 2260.17 672.8C2266.57 683.467 2269.77 695.733 2269.77 709.6C2269.77 723.733 2266.17 736.667 2258.97 748.4C2252.04 759.867 2242.04 769.067 2228.97 776C2215.9 782.667 2200.17 786 2181.77 786C2163.1 786 2146.97 782.267 2133.37 774.8C2129.9 777.467 2128.17 780.8 2128.17 784.8C2128.17 788.8 2129.64 792.267 2132.57 795.2C2135.5 797.867 2141.1 800.133 2149.37 802C2157.9 803.6 2170.3 804.8 2186.57 805.6C2198.3 806.133 2209.64 807.333 2220.57 809.2C2231.77 811.067 2241.77 814.133 2250.57 818.4C2259.37 822.4 2266.3 828.133 2271.37 835.6C2276.7 843.067 2279.37 852.8 2279.37 864.8C2279.37 875.733 2276.44 884.933 2270.57 892.4C2264.97 900.133 2257.24 906.267 2247.37 910.8C2237.77 915.333 2227.1 918.667 2215.37 920.8C2203.64 922.933 2191.77 924 2179.77 924C2163.5 924 2148.44 922.267 2134.57 918.8C2120.97 915.333 2109.9 910 2101.37 902.8C2093.1 895.6 2088.97 886.4 2088.97 875.2C2088.97 866.4 2091.24 858.8 2095.77 852.4C2100.57 846.267 2106.3 841.333 2112.97 837.6C2099.37 829.067 2092.57 816.933 2092.57 801.2C2092.57 792.133 2094.84 784.4 2099.37 778C2104.17 771.6 2110.17 766.933 2117.37 764C2101.64 749.6 2093.77 731.467 2093.77 709.6C2093.77 695.467 2097.24 682.667 2104.17 671.2C2111.37 659.467 2121.5 650.133 2134.57 643.2C2147.9 636.267 2163.64 632.8 2181.77 632.8C2192.97 632.8 2203.1 634.267 2212.17 637.2C2221.5 639.867 2229.77 643.6 2236.97 648.4C2238.3 649.2 2239.37 649.733 2240.17 650C2241.24 650 2242.04 650 2242.57 650C2244.7 650 2246.44 649.333 2247.77 648C2249.1 646.4 2249.77 643.6 2249.77 639.6V638.4C2249.77 634.933 2251.24 632.933 2254.17 632.4L2283.37 626ZM2181.77 656.8C2171.64 656.8 2163.64 659.6 2157.77 665.2C2152.17 670.8 2148.17 677.733 2145.77 686C2143.64 694 2142.57 701.867 2142.57 709.6C2142.57 717.333 2143.64 725.333 2145.77 733.6C2148.17 741.6 2152.17 748.4 2157.77 754C2163.64 759.6 2171.64 762.4 2181.77 762.4C2191.9 762.4 2199.5 759.6 2204.57 754C2209.9 748.4 2213.5 741.6 2215.37 733.6C2217.24 725.333 2218.17 717.333 2218.17 709.6C2218.17 701.867 2217.24 694 2215.37 686C2213.5 677.733 2209.9 670.8 2204.57 665.2C2199.5 659.6 2191.9 656.8 2181.77 656.8ZM2180.17 896.4C2199.9 896.4 2214.97 894.533 2225.37 890.8C2236.04 887.067 2241.37 882.133 2241.37 876C2241.37 867.467 2235.77 861.733 2224.57 858.8C2213.37 856.133 2197.64 854.267 2177.37 853.2C2162.97 852.4 2150.57 850.8 2140.17 848.4C2132.7 853.467 2128.97 860.533 2128.97 869.6C2128.97 873.6 2130.44 877.6 2133.37 881.6C2136.3 885.867 2141.5 889.333 2148.97 892C2156.44 894.933 2166.84 896.4 2180.17 896.4ZM2505.07 707.6V776C2505.07 790.667 2507.34 800.667 2511.87 806C2516.67 811.333 2522.94 814 2530.67 814H2533.87C2537.87 814 2539.87 816 2539.87 820V832C2539.87 836 2537.87 838 2533.87 838H2427.47C2423.47 838 2421.47 836 2421.47 832V820C2421.47 816 2423.47 814 2427.47 814H2430.27C2435.87 814 2440.4 811.333 2443.87 806C2447.34 800.667 2449.07 790.667 2449.07 776V707.6C2449.07 694.8 2447.07 685.067 2443.07 678.4C2439.07 671.467 2431.47 668 2420.27 668C2413.6 668 2406.94 669.733 2400.27 673.2C2393.6 676.4 2387.74 680.667 2382.67 686C2377.6 691.067 2373.87 696.533 2371.47 702.4V776C2371.47 786.667 2373.74 795.733 2378.27 803.2C2383.07 810.4 2389.34 814 2397.07 814H2397.87C2401.87 814 2403.87 816 2403.87 820V832C2403.87 836 2401.87 838 2397.87 838H2285.47C2281.47 838 2279.47 836 2279.47 832V820C2279.47 816 2281.47 814 2285.47 814H2286.27C2296.14 814 2303.47 810.4 2308.27 803.2C2313.07 795.733 2315.47 786.667 2315.47 776V725.6C2315.47 718.4 2314.94 711.467 2313.87 704.8C2313.07 698.133 2310.94 692.533 2307.47 688C2304.27 683.2 2298.94 680.4 2291.47 679.6C2288.54 679.333 2287.07 677.6 2287.07 674.4V660.8C2287.07 658.133 2288.94 656.4 2292.67 655.6C2311.87 652.667 2328.27 648.133 2341.87 642C2355.74 635.867 2365.34 630.933 2370.67 627.2C2372 626.133 2373.07 625.6 2373.87 625.6H2374.27C2374.8 625.6 2375.07 625.867 2375.07 626.4C2375.07 626.933 2374.94 628 2374.67 629.6L2367.87 678.8C2371.6 672.667 2376.54 666.133 2382.67 659.2C2388.8 652 2396.4 645.867 2405.47 640.8C2414.54 635.467 2425.07 632.8 2437.07 632.8C2451.47 632.8 2463.2 634.933 2472.27 639.2C2481.34 643.467 2488.14 649.2 2492.67 656.4C2497.47 663.6 2500.67 671.6 2502.27 680.4C2504.14 689.2 2505.07 698.267 2505.07 707.6ZM2933.99 814C2937.99 814 2939.99 816 2939.99 820V832C2939.99 836 2937.99 838 2933.99 838H2821.19C2817.19 838 2815.19 836 2815.19 832V820C2815.19 816 2817.19 814 2821.19 814H2823.19C2831.73 814 2837.33 810.933 2839.99 804.8C2842.66 798.4 2843.99 788.8 2843.99 776V707.6C2843.99 700.4 2843.33 693.867 2841.99 688C2840.93 681.867 2838.26 677.067 2833.99 673.6C2829.99 669.867 2823.73 668 2815.19 668C2803.73 668 2793.59 671.6 2784.79 678.8C2776.26 686 2769.06 695.067 2763.19 706V776C2763.19 790.667 2765.46 800.667 2769.99 806C2774.79 811.333 2781.06 814 2788.79 814H2791.99C2795.99 814 2797.99 816 2797.99 820V832C2797.99 836 2795.99 838 2791.99 838H2683.19C2679.19 838 2677.19 836 2677.19 832V820C2677.19 816 2679.19 814 2683.19 814H2685.99C2691.59 814 2696.53 811.333 2700.79 806C2705.06 800.667 2707.19 790.667 2707.19 776V707.6C2707.19 694.8 2705.46 685.067 2701.99 678.4C2698.79 671.467 2690.93 668 2678.39 668C2671.73 668 2665.06 669.733 2658.39 673.2C2651.73 676.4 2645.86 680.667 2640.79 686C2635.73 691.067 2631.99 696.533 2629.59 702.4V776C2629.59 786.667 2631.86 795.733 2636.39 803.2C2641.19 810.4 2647.46 814 2655.19 814H2655.99C2659.99 814 2661.99 816 2661.99 820V832C2661.99 836 2659.99 838 2655.99 838H2543.59C2539.59 838 2537.59 836 2537.59 832V820C2537.59 816 2539.59 814 2543.59 814H2544.39C2554.26 814 2561.59 810.4 2566.39 803.2C2571.19 795.733 2573.59 786.667 2573.59 776V725.6C2573.59 718.4 2573.06 711.467 2571.99 704.8C2571.19 698.133 2569.06 692.533 2565.59 688C2562.39 683.2 2557.06 680.4 2549.59 679.6C2546.66 679.333 2545.19 677.6 2545.19 674.4V660.8C2545.19 658.133 2547.06 656.4 2550.79 655.6C2569.99 652.667 2586.39 648.133 2599.99 642C2613.86 635.867 2623.46 630.933 2628.79 627.2C2630.13 626.133 2631.19 625.6 2631.99 625.6H2632.39C2632.93 625.6 2633.19 625.867 2633.19 626.4C2633.19 626.933 2633.06 628 2632.79 629.6L2625.99 678.8C2629.73 672.667 2634.66 666.133 2640.79 659.2C2646.93 652 2654.53 645.867 2663.59 640.8C2672.66 635.467 2683.19 632.8 2695.19 632.8C2714.93 632.8 2729.59 636.533 2739.19 644C2748.79 651.2 2755.33 660.533 2758.79 672C2767.86 660.267 2778.39 650.8 2790.39 643.6C2802.66 636.4 2816.66 632.8 2832.39 632.8C2846.79 632.8 2858.39 635.067 2867.19 639.6C2876.26 643.867 2883.19 649.733 2887.99 657.2C2892.79 664.4 2895.99 672.667 2897.59 682C2899.46 691.067 2900.39 700.4 2900.39 710V776C2900.39 786.667 2902.79 795.733 2907.59 803.2C2912.66 810.4 2919.99 814 2929.59 814H2933.99ZM2980.42 766.4C2984.96 777.6 2992.16 787.6 3002.02 796.4C3012.16 805.2 3024.96 809.6 3040.42 809.6C3048.96 809.6 3057.89 807.2 3067.22 802.4C3076.56 797.6 3084.69 790.133 3091.62 780C3092.42 778.667 3093.49 778 3094.82 778C3096.16 778 3097.49 778.4 3098.82 779.2C3100.42 780 3104.42 782.267 3110.82 786C3111.89 786.8 3112.42 787.867 3112.42 789.2C3112.42 791.067 3111.62 793.333 3110.02 796C3102.56 809.867 3092.42 821.2 3079.62 830C3066.82 838.8 3050.16 843.2 3029.62 843.2C3007.49 843.2 2988.42 838.267 2972.42 828.4C2956.42 818.533 2944.02 805.467 2935.22 789.2C2926.69 772.933 2922.42 755.2 2922.42 736C2922.42 717.6 2925.09 701.867 2930.42 688.8C2936.02 675.467 2943.36 664.8 2952.42 656.8C2961.49 648.533 2971.62 642.533 2982.82 638.8C2994.29 634.8 3005.89 632.8 3017.62 632.8C3030.96 632.8 3042.69 635.467 3052.82 640.8C3062.96 645.867 3071.49 652.4 3078.42 660.4C3085.62 668.4 3090.96 676.933 3094.42 686C3098.16 694.8 3100.02 703.067 3100.02 710.8C3100.02 712.933 3098.82 714.533 3096.42 715.6L2980.42 766.4ZM3040.02 709.2C3040.02 696.4 3036.96 685.867 3030.82 677.6C3024.69 669.333 3016.96 665.2 3007.62 665.2C2996.69 665.2 2988.02 669.6 2981.62 678.4C2975.22 686.933 2972.02 697.733 2972.02 710.8C2972.02 714.8 2972.16 719.733 2972.42 725.6C2972.96 731.467 2974.02 736.8 2975.62 741.6L3040.02 709.2ZM3327.88 707.6V776C3327.88 790.667 3330.15 800.667 3334.68 806C3339.48 811.333 3345.75 814 3353.48 814H3356.68C3360.68 814 3362.68 816 3362.68 820V832C3362.68 836 3360.68 838 3356.68 838H3250.28C3246.28 838 3244.28 836 3244.28 832V820C3244.28 816 3246.28 814 3250.28 814H3253.08C3258.68 814 3263.21 811.333 3266.68 806C3270.15 800.667 3271.88 790.667 3271.88 776V707.6C3271.88 694.8 3269.88 685.067 3265.88 678.4C3261.88 671.467 3254.28 668 3243.08 668C3236.41 668 3229.75 669.733 3223.08 673.2C3216.41 676.4 3210.55 680.667 3205.48 686C3200.41 691.067 3196.68 696.533 3194.28 702.4V776C3194.28 786.667 3196.55 795.733 3201.08 803.2C3205.88 810.4 3212.15 814 3219.88 814H3220.68C3224.68 814 3226.68 816 3226.68 820V832C3226.68 836 3224.68 838 3220.68 838H3108.28C3104.28 838 3102.28 836 3102.28 832V820C3102.28 816 3104.28 814 3108.28 814H3109.08C3118.95 814 3126.28 810.4 3131.08 803.2C3135.88 795.733 3138.28 786.667 3138.28 776V725.6C3138.28 718.4 3137.75 711.467 3136.68 704.8C3135.88 698.133 3133.75 692.533 3130.28 688C3127.08 683.2 3121.75 680.4 3114.28 679.6C3111.35 679.333 3109.88 677.6 3109.88 674.4V660.8C3109.88 658.133 3111.75 656.4 3115.48 655.6C3134.68 652.667 3151.08 648.133 3164.68 642C3178.55 635.867 3188.15 630.933 3193.48 627.2C3194.81 626.133 3195.88 625.6 3196.68 625.6H3197.08C3197.61 625.6 3197.88 625.867 3197.88 626.4C3197.88 626.933 3197.75 628 3197.48 629.6L3190.68 678.8C3194.41 672.667 3199.35 666.133 3205.48 659.2C3211.61 652 3219.21 645.867 3228.28 640.8C3237.35 635.467 3247.88 632.8 3259.88 632.8C3274.28 632.8 3286.01 634.933 3295.08 639.2C3304.15 643.467 3310.95 649.2 3315.48 656.4C3320.28 663.6 3323.48 671.6 3325.08 680.4C3326.95 689.2 3327.88 698.267 3327.88 707.6ZM3487.43 809.2C3488.23 810.267 3488.63 811.467 3488.63 812.8C3488.63 814.4 3487.56 815.867 3485.43 817.2L3473.43 824.8C3466.23 829.333 3457.56 833.6 3447.43 837.6C3437.29 841.333 3427.16 843.2 3417.03 843.2C3409.03 843.2 3401.43 841.333 3394.23 837.6C3387.29 833.867 3381.69 827.6 3377.43 818.8C3373.16 809.733 3371.03 797.333 3371.03 781.6V707.6C3371.03 700.4 3370.63 693.333 3369.83 686.4C3369.03 679.2 3366.49 673.333 3362.23 668.8C3358.23 664.267 3351.43 662 3341.82 662C3337.83 662 3335.83 660 3335.83 656V644C3335.83 640 3337.83 638 3341.82 638H3371.03V611.2C3371.03 607.733 3372.23 605.333 3374.63 604C3380.49 600.8 3388.23 596.4 3397.83 590.8C3407.43 584.933 3415.96 578.267 3423.43 570.8C3423.96 570.267 3424.63 570 3425.43 570H3426.23C3426.76 570 3427.03 570.4 3427.03 571.2V638H3480.63C3484.63 638 3486.63 640 3486.63 644V661.2C3486.63 665.2 3484.63 667.2 3480.63 667.2H3427.03V781.6C3427.03 792 3428.63 799.2 3431.83 803.2C3435.03 806.933 3439.03 808.8 3443.83 808.8C3448.36 808.8 3453.16 807.6 3458.23 805.2C3463.29 802.533 3467.96 799.867 3472.23 797.2C3474.09 796.133 3475.56 795.6 3476.63 795.6C3478.23 795.6 3479.69 796.667 3481.03 798.8L3487.43 809.2Z" fill="black"/>
<circle cx="533" cy="527" r="275" stroke="#B31B1B" stroke-width="150"/>
<rect x="694.143" y="189.445" width="170" height="706.281" transform="rotate(-5 694.143 189.445)" fill="black" stroke="white" stroke-width="20"/>
<circle cx="533" cy="527" r="360" stroke="white" stroke-width="20"/>
<rect x="732.713" y="515.555" width="150" height="368.05" transform="rotate(-5 732.713 515.555)" fill="black"/>
</svg>
